<svg width="512" height="512" viewBox="0 0 512 512" fill="none" xmlns="http://www.w3.org/2000/svg">
<rect width="512" height="512" rx="256" fill="#141414"/>
<path d="M255.902 324.495C240.018 339.845 224.07 355.28 208.052 370.796C207.416 371.411 206.881 371.75 205.939 371.75C191.907 371.737 178.193 371.731 164.791 371.731C156.843 371.737 149.378 371.227 142.397 370.205C142.301 370.193 142.263 370.076 142.333 370.009C165.071 348.089 187.675 326.236 210.159 304.452C225.553 289.533 233.336 269.224 230.701 248.123C226.895 217.663 203.038 193.67 171.689 188.921C162.615 187.543 152.331 187.992 143.224 190.366C130.325 193.726 119.315 200.007 110.19 209.217C99.1229 220.383 91.7154 235.615 90.9518 251.229C90.1054 268.535 95.311 285.626 106.632 298.785C117.998 311.994 132.552 320.078 150.288 323.043C150.415 323.062 150.472 323.216 150.377 323.308L111.45 360.848C111.271 361.02 111.011 361.063 110.788 360.959C79.1215 346.655 55.4099 319.949 45.8451 287.41C42.5614 276.238 41.085 264.174 41.4159 251.223C42.1096 224.314 54.1626 196.82 73.2604 177.287C91.0854 159.052 112.551 147.455 137.662 142.503C146.54 140.75 156.104 140.22 165.561 140.251C179.122 140.294 192.626 140.3 206.079 140.264C206.709 140.264 207.308 140.503 207.753 140.934L255.825 187.475C255.946 187.592 256.15 187.592 256.277 187.475L304.623 140.676C304.878 140.424 305.228 140.282 305.597 140.282C319.623 140.27 334.896 140.276 351.416 140.294C357.678 140.3 363.724 140.768 369.547 141.685C369.744 141.715 369.827 141.949 369.68 142.091C348.966 162.116 328.137 182.233 307.2 202.431C302.3 207.162 299.335 210.09 298.304 211.216C271.461 240.715 276.151 285.312 307.843 309.41C322.213 320.336 342.195 325.886 360.465 323.099C380.83 319.998 396.866 310.481 408.569 294.54C424.905 272.301 425.141 242.223 409.912 219.312C399.005 202.898 382.064 192.384 362.088 188.945C361.738 188.89 361.694 188.736 361.942 188.496L400.627 151.141C400.774 150.999 401.003 150.956 401.194 151.042C415.251 157.231 427.763 166.023 438.728 177.416C457.984 197.429 468.822 222.782 470.438 250.073C472.481 284.549 458.042 317.611 432.357 340.577C414.068 356.923 392.685 366.853 368.204 370.353C360.491 371.46 352.453 371.762 343.875 371.75C331.281 371.737 318.623 371.737 305.902 371.743C305.348 371.743 304.878 371.553 304.489 371.177L256.239 324.495C256.144 324.403 255.991 324.403 255.902 324.495Z" fill="white"/>
</svg>
