<svg width="2518" height="440" viewBox="0 0 2518 440" fill="none" xmlns="http://www.w3.org/2000/svg">
<path d="M372.821 342.206C345.217 369.798 317.502 397.546 289.666 425.438C288.56 426.544 287.631 427.152 285.995 427.152C261.609 427.13 237.776 427.119 214.485 427.119C200.672 427.13 187.7 426.212 175.568 424.376C175.402 424.354 175.335 424.144 175.457 424.022C214.972 384.618 254.254 345.335 293.327 306.174C320.079 279.356 333.605 242.849 329.026 204.916C322.413 150.161 280.952 107.03 226.473 98.4922C210.703 96.0149 192.831 96.8222 177.005 101.091C154.588 107.129 135.456 118.421 119.597 134.977C100.365 155.049 87.4915 182.432 86.1644 210.501C84.6935 241.61 93.74 272.333 113.414 295.989C133.166 319.733 158.459 334.265 189.281 339.595C189.502 339.629 189.602 339.905 189.436 340.071L121.786 407.555C121.477 407.864 121.023 407.942 120.636 407.754C65.6052 382.041 24.3983 334.033 7.77624 275.54C2.06965 255.457 -0.49611 233.769 0.0789724 210.49C1.28443 162.116 22.2307 112.692 55.4196 77.5791C86.3967 44.7994 123.7 23.9527 167.34 15.0499C182.767 11.898 199.389 10.947 215.823 11.0023C239.391 11.0797 262.859 11.0907 286.238 11.0244C287.333 11.0244 288.372 11.4557 289.146 12.2298L372.688 95.8933C372.898 96.1034 373.252 96.1034 373.473 95.8933L457.491 11.7653C457.933 11.3119 458.541 11.0575 459.183 11.0575C483.557 11.0354 510.1 11.0465 538.81 11.0797C549.692 11.0907 560.198 11.9312 570.318 13.5791C570.66 13.6343 570.804 14.0546 570.55 14.309C534.552 50.3069 498.355 86.4708 461.97 122.778C453.454 131.283 448.301 136.547 446.509 138.571C399.861 191.6 408.012 271.769 463.087 315.088C488.059 334.729 522.785 344.705 554.536 339.695C589.926 334.121 617.795 317.012 638.133 288.358C666.522 248.379 666.931 194.31 640.467 153.125C621.511 123.619 592.071 104.719 557.356 98.5364C556.748 98.4369 556.67 98.1604 557.102 97.7291L624.331 30.5772C624.585 30.3228 624.984 30.2454 625.315 30.4002C649.745 41.5259 671.488 57.3296 690.543 77.8113C724.008 113.787 742.842 159.362 745.651 208.421C749.201 270.398 724.108 329.83 679.473 371.114C647.688 400.499 610.529 418.349 567.984 424.641C554.58 426.632 540.612 427.174 525.704 427.152C503.818 427.13 481.821 427.13 459.714 427.141C458.752 427.141 457.933 426.798 457.259 426.123L373.407 342.206C373.241 342.04 372.976 342.04 372.821 342.206Z" fill="#141414"/>
<path d="M1106.49 352.756C1089.17 352.756 1072.89 349.341 1057.65 342.512C1042.4 335.561 1028.99 325.988 1017.4 313.793C1005.94 301.598 996.915 287.512 990.329 271.537C983.866 255.439 980.634 238.244 980.634 219.951C980.634 201.537 983.866 184.341 990.329 168.366C996.915 152.268 1005.94 138.183 1017.4 126.11C1028.99 113.915 1042.4 104.402 1057.65 97.5731C1072.89 90.6219 1089.17 87.1463 1106.49 87.1463C1127.22 87.1463 1146.3 91.9634 1163.74 101.598C1181.18 111.11 1195.63 123.854 1207.1 139.829L1158.07 166.171C1151.73 158.854 1144.11 153 1135.21 148.61C1126.3 144.219 1116.73 142.024 1106.49 142.024C1096.73 142.024 1087.52 144.037 1078.87 148.061C1070.33 152.085 1062.77 157.695 1056.18 164.89C1049.72 171.963 1044.66 180.195 1041 189.585C1037.34 198.976 1035.51 209.098 1035.51 219.951C1035.51 230.683 1037.34 240.744 1041 250.134C1044.66 259.524 1049.72 267.817 1056.18 275.012C1062.77 282.085 1070.33 287.695 1078.87 291.841C1087.52 295.866 1096.73 297.878 1106.49 297.878C1116.73 297.878 1126.3 295.683 1135.21 291.293C1144.11 286.78 1151.73 280.805 1158.07 273.366L1207.1 300.073C1195.63 315.927 1181.18 328.671 1163.74 338.305C1146.3 347.939 1127.22 352.756 1106.49 352.756ZM1304.07 352.756C1287.24 352.756 1271.88 348.427 1257.97 339.768C1244.19 331.11 1233.16 319.524 1224.86 305.012C1216.69 290.378 1212.61 274.22 1212.61 256.537C1212.61 243.122 1214.99 230.622 1219.74 219.037C1224.5 207.329 1231.02 197.085 1239.32 188.305C1247.73 179.402 1257.49 172.451 1268.58 167.451C1279.68 162.451 1291.51 159.951 1304.07 159.951C1320.9 159.951 1336.21 164.28 1349.99 172.939C1363.89 181.598 1374.93 193.244 1383.1 207.878C1391.39 222.512 1395.54 238.732 1395.54 256.537C1395.54 269.829 1393.16 282.268 1388.4 293.854C1383.64 305.439 1377.06 315.683 1368.64 324.585C1360.35 333.366 1350.66 340.256 1339.56 345.256C1328.58 350.256 1316.75 352.756 1304.07 352.756ZM1304.07 297.878C1311.02 297.878 1317.24 295.988 1322.73 292.207C1328.34 288.427 1332.73 283.427 1335.9 277.207C1339.07 270.866 1340.66 263.976 1340.66 256.537C1340.66 248.854 1338.95 241.841 1335.54 235.5C1332.24 229.159 1327.79 224.159 1322.18 220.5C1316.69 216.719 1310.66 214.829 1304.07 214.829C1297.24 214.829 1291.02 216.78 1285.41 220.683C1279.93 224.463 1275.54 229.524 1272.24 235.866C1269.07 242.207 1267.49 249.098 1267.49 256.537C1267.49 264.341 1269.13 271.354 1272.43 277.573C1275.84 283.793 1280.29 288.732 1285.78 292.39C1291.39 296.049 1297.49 297.878 1304.07 297.878ZM1549.12 73.6097H1604V348H1549.12V331.171C1543.51 337.512 1536.81 342.695 1529 346.72C1521.32 350.744 1512.54 352.756 1502.66 352.756C1489.37 352.756 1476.93 350.256 1465.34 345.256C1453.76 340.256 1443.51 333.366 1434.61 324.585C1425.83 315.683 1418.94 305.439 1413.94 293.854C1408.94 282.268 1406.44 269.829 1406.44 256.537C1406.44 243.244 1408.94 230.805 1413.94 219.219C1418.94 207.634 1425.83 197.451 1434.61 188.671C1443.51 179.768 1453.76 172.817 1465.34 167.817C1476.93 162.817 1489.37 160.317 1502.66 160.317C1512.54 160.317 1521.32 162.329 1529 166.354C1536.81 170.256 1543.51 175.439 1549.12 181.902V73.6097ZM1503.39 300.073C1510.95 300.073 1517.84 298.122 1524.06 294.22C1530.28 290.317 1535.22 285.073 1538.88 278.488C1542.54 271.902 1544.37 264.585 1544.37 256.537C1544.37 248.488 1542.54 241.171 1538.88 234.585C1535.22 228 1530.28 222.756 1524.06 218.854C1517.84 214.951 1510.95 213 1503.39 213C1495.83 213 1488.94 214.951 1482.72 218.854C1476.62 222.756 1471.74 228 1468.09 234.585C1464.55 241.171 1462.78 248.488 1462.78 256.537C1462.78 264.585 1464.61 271.902 1468.27 278.488C1471.93 285.073 1476.81 290.317 1482.9 294.22C1489.12 298.122 1495.95 300.073 1503.39 300.073ZM1717.1 352.756C1700.27 352.756 1684.91 348.427 1671 339.768C1657.22 331.11 1646.19 319.463 1637.89 304.829C1629.72 290.195 1625.64 274.037 1625.64 256.354C1625.64 243.061 1628.02 230.622 1632.77 219.037C1637.53 207.329 1644.05 197.085 1652.34 188.305C1660.76 179.402 1670.52 172.451 1681.61 167.451C1692.71 162.451 1704.54 159.951 1717.1 159.951C1731.73 159.951 1745.09 163.183 1757.16 169.646C1769.36 175.988 1779.6 184.646 1787.89 195.622C1796.31 206.476 1802.28 218.732 1805.82 232.39C1809.36 246.049 1809.72 260.134 1806.92 274.646H1684.91C1686.61 278.915 1688.87 282.817 1691.67 286.354C1694.6 289.768 1698.14 292.512 1702.28 294.585C1706.55 296.659 1711.49 297.756 1717.1 297.878C1722.47 298 1727.41 296.841 1731.92 294.402C1736.55 291.963 1740.58 288.671 1743.99 284.524L1799.97 297.512C1792.53 313.732 1781.43 327.024 1766.67 337.39C1751.92 347.634 1735.39 352.756 1717.1 352.756ZM1682.89 234.402H1751.49C1749.78 229.159 1747.22 224.524 1743.81 220.5C1740.39 216.476 1736.37 213.305 1731.73 210.988C1727.22 208.671 1722.34 207.512 1717.1 207.512C1711.98 207.512 1707.1 208.671 1702.47 210.988C1697.95 213.305 1693.99 216.476 1690.58 220.5C1687.28 224.524 1684.72 229.159 1682.89 234.402ZM1824.73 348V91.9024H1921.68C1935.7 91.9024 1948.39 94.8292 1959.73 100.683C1971.07 106.415 1980.03 114.585 1986.62 125.195C1993.32 135.805 1996.68 148.244 1996.68 162.512C1996.68 167.878 1996.01 173.549 1994.67 179.524C1993.32 185.378 1990.95 190.866 1987.53 195.988C1984.12 201.11 1979.24 205.134 1972.9 208.061C1981.07 210.012 1987.53 213.671 1992.29 219.037C1997.04 224.402 2000.58 230.622 2002.9 237.695C2005.34 244.646 2006.92 251.72 2007.65 258.915C2008.39 265.988 2008.75 272.39 2008.75 278.122C2008.75 291.049 2005.28 302.817 1998.32 313.427C1991.37 323.915 1982.04 332.329 1970.34 338.671C1958.63 344.89 1945.7 348 1931.56 348H1824.73ZM1879.61 301.537H1925.7C1932.04 301.537 1937.78 300.073 1942.9 297.146C1948.14 294.098 1952.29 289.951 1955.34 284.707C1958.51 279.463 1960.09 273.488 1960.09 266.78C1960.09 261.171 1958.51 255.866 1955.34 250.866C1952.29 245.744 1948.14 241.598 1942.9 238.427C1937.78 235.256 1932.04 233.671 1925.7 233.671H1879.61V301.537ZM1879.61 187.939H1915.09C1922.41 187.939 1928.69 185.5 1933.93 180.622C1939.18 175.744 1941.8 169.585 1941.8 162.146C1941.8 154.585 1939.18 148.793 1933.93 144.768C1928.69 140.744 1922.41 138.732 1915.09 138.732H1879.61V187.939ZM2028.56 348V73.6097H2083.44V348H2028.56ZM2196.41 352.756C2179.58 352.756 2164.22 348.427 2150.31 339.768C2136.53 331.11 2125.5 319.524 2117.2 305.012C2109.03 290.378 2104.95 274.22 2104.95 256.537C2104.95 243.122 2107.33 230.622 2112.08 219.037C2116.84 207.329 2123.36 197.085 2131.66 188.305C2140.07 179.402 2149.83 172.451 2160.92 167.451C2172.02 162.451 2183.85 159.951 2196.41 159.951C2213.24 159.951 2228.55 164.28 2242.33 172.939C2256.23 181.598 2267.27 193.244 2275.44 207.878C2283.73 222.512 2287.88 238.732 2287.88 256.537C2287.88 269.829 2285.5 282.268 2280.74 293.854C2275.98 305.439 2269.4 315.683 2260.98 324.585C2252.69 333.366 2243 340.256 2231.9 345.256C2220.92 350.256 2209.09 352.756 2196.41 352.756ZM2196.41 297.878C2203.36 297.878 2209.58 295.988 2215.07 292.207C2220.68 288.427 2225.07 283.427 2228.24 277.207C2231.41 270.866 2233 263.976 2233 256.537C2233 248.854 2231.29 241.841 2227.88 235.5C2224.58 229.159 2220.13 224.159 2214.52 220.5C2209.03 216.719 2203 214.829 2196.41 214.829C2189.58 214.829 2183.36 216.78 2177.75 220.683C2172.27 224.463 2167.88 229.524 2164.58 235.866C2161.41 242.207 2159.83 249.098 2159.83 256.537C2159.83 264.341 2161.47 271.354 2164.77 277.573C2168.18 283.793 2172.63 288.732 2178.12 292.39C2183.73 296.049 2189.83 297.878 2196.41 297.878ZM2440.36 165.073H2495.24V349.829C2495.24 363.732 2492.44 376.171 2486.83 387.146C2481.34 398.244 2473.78 407.695 2464.15 415.5C2454.51 423.305 2443.41 429.22 2430.85 433.244C2418.41 437.39 2405.24 439.463 2391.34 439.463C2378.41 439.463 2366.04 436.963 2354.21 431.963C2342.38 427.085 2331.83 420.256 2322.56 411.476C2313.29 402.695 2305.97 392.512 2300.61 380.927L2350.73 358.244C2353.29 363.732 2356.65 368.366 2360.79 372.146C2364.94 376.049 2369.63 379.037 2374.88 381.11C2380.12 383.183 2385.61 384.22 2391.34 384.22C2397.68 384.22 2403.78 383.549 2409.63 382.207C2415.49 380.866 2420.73 378.793 2425.36 375.988C2430 373.183 2433.66 369.585 2436.34 365.195C2439.02 360.927 2440.36 355.805 2440.36 349.829V331.902C2434.88 338.122 2428.35 343.183 2420.79 347.085C2413.35 350.866 2404.75 352.756 2395 352.756C2381.71 352.756 2369.27 350.256 2357.68 345.256C2346.1 340.256 2335.85 333.366 2326.95 324.585C2318.17 315.683 2311.28 305.439 2306.28 293.854C2301.28 282.268 2298.78 269.829 2298.78 256.537C2298.78 243.244 2301.28 230.805 2306.28 219.219C2311.28 207.634 2318.17 197.451 2326.95 188.671C2335.85 179.768 2346.1 172.817 2357.68 167.817C2369.27 162.817 2381.71 160.317 2395 160.317C2404.75 160.317 2413.35 162.268 2420.79 166.171C2428.35 169.951 2434.88 174.951 2440.36 181.171V165.073ZM2395.73 300.073C2403.29 300.073 2410.18 298.122 2416.4 294.22C2422.62 290.317 2427.56 285.073 2431.22 278.488C2434.88 271.902 2436.71 264.585 2436.71 256.537C2436.71 248.488 2434.88 241.171 2431.22 234.585C2427.56 228 2422.62 222.756 2416.4 218.854C2410.18 214.951 2403.29 213 2395.73 213C2388.29 213 2381.46 214.951 2375.24 218.854C2369.15 222.756 2364.27 228 2360.61 234.585C2356.95 241.171 2355.12 248.488 2355.12 256.537C2355.12 264.585 2356.95 271.902 2360.61 278.488C2364.27 285.073 2369.15 290.317 2375.24 294.22C2381.46 298.122 2388.29 300.073 2395.73 300.073Z" fill="#141414"/>
</svg>
